<svg width="16" height="17" viewBox="0 0 16 17" fill="none" xmlns="http://www.w3.org/2000/svg">
<path d="M5.33338 15.1667H10.6667C13.3467 15.1667 13.8267 14.0933 13.9667 12.7867L14.4667 7.45333C14.6467 5.82667 14.18 4.5 11.3334 4.5H4.66671C1.82005 4.5 1.35338 5.82667 1.53338 7.45333L2.03338 12.7867C2.17338 14.0933 2.65338 15.1667 5.33338 15.1667Z" stroke="#9CA5B3" stroke-width="1.5" stroke-miterlimit="10" stroke-linecap="round" stroke-linejoin="round"/>
<path d="M5.33325 4.49998V3.96665C5.33325 2.78665 5.33325 1.83331 7.46659 1.83331H8.53325C10.6666 1.83331 10.6666 2.78665 10.6666 3.96665V4.49998" stroke="#9CA5B3" stroke-width="1.5" stroke-miterlimit="10" stroke-linecap="round" stroke-linejoin="round"/>
<path d="M9.33341 9.16667V9.83333C9.33341 9.84 9.33341 9.84 9.33341 9.84667C9.33341 10.5733 9.32675 11.1667 8.00008 11.1667C6.68008 11.1667 6.66675 10.58 6.66675 9.85333V9.16667C6.66675 8.5 6.66675 8.5 7.33341 8.5H8.66675C9.33341 8.5 9.33341 8.5 9.33341 9.16667Z" stroke="#9CA5B3" stroke-width="1.5" stroke-miterlimit="10" stroke-linecap="round" stroke-linejoin="round"/>
<path d="M14.4333 7.83331C12.8933 8.95331 11.1333 9.61998 9.33325 9.84665" stroke="#9CA5B3" stroke-width="1.5" stroke-miterlimit="10" stroke-linecap="round" stroke-linejoin="round"/>
<path d="M1.74658 8.01331C3.24658 9.03997 4.93992 9.65997 6.66658 9.85331" stroke="#9CA5B3" stroke-width="1.5" stroke-miterlimit="10" stroke-linecap="round" stroke-linejoin="round"/>
</svg>
