<svg width="16" height="17" viewBox="0 0 16 17" fill="none" xmlns="http://www.w3.org/2000/svg">
<path d="M14.5399 3.12665C13.5133 5.68665 10.9399 9.16665 8.7866 10.8933L7.47327 11.9466C7.3066 12.0666 7.13993 12.1733 6.95327 12.2466C6.95327 12.1266 6.9466 11.9933 6.9266 11.8666C6.85327 11.3066 6.59993 10.7866 6.15326 10.34C5.69993 9.88665 5.1466 9.61998 4.57993 9.54665C4.4466 9.53998 4.31326 9.52665 4.17993 9.53998C4.25326 9.33331 4.3666 9.13998 4.5066 8.97998L5.5466 7.66665C7.2666 5.51331 10.7599 2.92665 13.3133 1.90665C13.7066 1.75998 14.0866 1.86665 14.3266 2.11331C14.5799 2.35998 14.6999 2.73998 14.5399 3.12665Z" stroke="#4790FF" stroke-width="1.5" stroke-linecap="round" stroke-linejoin="round"/>
<path d="M6.95343 12.2467C6.95343 12.98 6.67343 13.68 6.14677 14.2133C5.7401 14.62 5.18677 14.9 4.52677 14.9867L2.88677 15.1667C1.99343 15.2667 1.22677 14.5067 1.33343 13.6L1.51343 11.96C1.67343 10.5 2.89343 9.56666 4.18677 9.53999C4.3201 9.53333 4.4601 9.53999 4.58677 9.54666C5.15343 9.61999 5.70677 9.87999 6.1601 10.34C6.60677 10.7867 6.8601 11.3067 6.93343 11.8667C6.9401 11.9933 6.95343 12.12 6.95343 12.2467Z" stroke="#4790FF" stroke-width="1.5" stroke-linecap="round" stroke-linejoin="round"/>
<path d="M9.49342 10.1467C9.49342 8.40668 8.08009 6.99335 6.34009 6.99335" stroke="#4790FF" stroke-width="1.5" stroke-linecap="round" stroke-linejoin="round"/>
</svg>
