<svg width="18" height="19" viewBox="0 0 18 19" fill="none" xmlns="http://www.w3.org/2000/svg">
<path d="M5.06988 17H12.9299C14.9999 17 15.8249 15.7325 15.9224 14.1875L16.3124 7.9925C16.4174 6.3725 15.1274 5 13.4999 5C13.0424 5 12.6224 4.7375 12.4124 4.3325L11.8724 3.245C11.5274 2.5625 10.6274 2 9.86238 2H8.14488C7.37238 2 6.47238 2.5625 6.12738 3.245L5.58738 4.3325C5.37738 4.7375 4.95738 5 4.49988 5C2.87238 5 1.58238 6.3725 1.68738 7.9925L2.07738 14.1875C2.16738 15.7325 2.99988 17 5.06988 17Z" stroke="#575E6A" stroke-width="1.5" stroke-linecap="round" stroke-linejoin="round"/>
<path d="M7.875 6.5H10.125" stroke="#575E6A" stroke-width="1.5" stroke-linecap="round" stroke-linejoin="round"/>
<path d="M9 14C10.3425 14 11.4375 12.905 11.4375 11.5625C11.4375 10.22 10.3425 9.125 9 9.125C7.6575 9.125 6.5625 10.22 6.5625 11.5625C6.5625 12.905 7.6575 14 9 14Z" stroke="#575E6A" stroke-width="1.5" stroke-linecap="round" stroke-linejoin="round"/>
</svg>
