<svg width="18" height="15" viewBox="0 0 18 15" fill="none" xmlns="http://www.w3.org/2000/svg">
<path d="M14.895 4.56744C14.895 4.88244 14.8725 5.18994 14.835 5.48244C14.49 5.33244 14.115 5.24995 13.7175 5.24995C12.8025 5.24995 11.9925 5.69244 11.49 6.36744C10.98 5.69244 10.17 5.24995 9.255 5.24995C7.7175 5.24995 6.4725 6.50244 6.4725 8.05494C6.4725 10.0649 7.5375 11.6024 8.7225 12.6449C8.685 12.6674 8.64751 12.675 8.61001 12.69C8.38501 12.7725 8.01 12.7725 7.785 12.69C5.8425 12.0225 1.5 9.26244 1.5 4.56744C1.5 2.49744 3.16499 0.824951 5.21999 0.824951C6.44249 0.824951 7.52249 1.40994 8.19749 2.31744C8.87999 1.40994 9.96 0.824951 11.175 0.824951C13.23 0.824951 14.895 2.49744 14.895 4.56744Z" stroke="#9CA5B3" stroke-width="1.5" stroke-linecap="round" stroke-linejoin="round"/>
<path d="M16.4999 8.05499C16.4999 11.565 13.2524 13.635 11.7974 14.13C11.6249 14.19 11.3474 14.19 11.1749 14.13C10.5524 13.92 9.59991 13.4175 8.72241 12.645C7.53741 11.6025 6.47241 10.065 6.47241 8.05499C6.47241 6.50249 7.71741 5.25 9.25491 5.25C10.1699 5.25 10.9799 5.69249 11.4899 6.36749C11.9924 5.69249 12.8024 5.25 13.7174 5.25C14.1149 5.25 14.4899 5.3325 14.8349 5.4825C15.8174 5.9175 16.4999 6.89999 16.4999 8.05499Z" stroke="#9CA5B3" stroke-width="1.5" stroke-linecap="round" stroke-linejoin="round"/>
</svg>
