<svg width="19" height="19" viewBox="0 0 19 19" fill="none" xmlns="http://www.w3.org/2000/svg">
<path d="M3.30106 12.1125L6.88731 15.6988C8.35981 17.1713 10.7506 17.1713 12.2311 15.6988L15.7065 12.2233C17.179 10.7508 17.179 8.36001 15.7065 6.87959L12.1123 3.30126C11.3602 2.54918 10.3231 2.14542 9.26231 2.20084L5.30398 2.39084C3.72065 2.46209 2.4619 3.72084 2.38273 5.29626L2.19273 9.25459C2.14523 10.3233 2.54898 11.3604 3.30106 12.1125Z" stroke="#575E6A" stroke-width="1.5" stroke-linecap="round" stroke-linejoin="round"/>
<path d="M7.52067 9.50002C8.61373 9.50002 9.49984 8.61392 9.49984 7.52085C9.49984 6.42779 8.61373 5.54169 7.52067 5.54169C6.42761 5.54169 5.5415 6.42779 5.5415 7.52085C5.5415 8.61392 6.42761 9.50002 7.52067 9.50002Z" stroke="#575E6A" stroke-width="1.5" stroke-linecap="round"/>
</svg>
