<svg width="14" height="14" viewBox="0 0 14 14" fill="none" xmlns="http://www.w3.org/2000/svg">
<path d="M8.47583 5.52418L5.52417 8.47585C5.145 8.09668 4.91167 7.57752 4.91167 7.00002C4.91167 5.84502 5.845 4.91168 7 4.91168C7.5775 4.91168 8.09667 5.14502 8.47583 5.52418Z" stroke="#9CA5B3" stroke-linecap="round" stroke-linejoin="round"/>
<path d="M10.395 3.36584C9.37417 2.59584 8.2075 2.17584 7 2.17584C4.94083 2.17584 3.02167 3.38918 1.68583 5.48918C1.16083 6.31168 1.16083 7.69418 1.68583 8.51668C2.14667 9.24001 2.68333 9.86418 3.26667 10.3658" stroke="#9CA5B3" stroke-linecap="round" stroke-linejoin="round"/>
<path d="M4.91167 11.3925C5.57667 11.6725 6.2825 11.8242 7 11.8242C9.05917 11.8242 10.9783 10.6109 12.3142 8.51085C12.8392 7.68835 12.8392 6.30585 12.3142 5.48335C12.1217 5.18002 11.9117 4.89419 11.6958 4.62585" stroke="#9CA5B3" stroke-linecap="round" stroke-linejoin="round"/>
<path d="M9.0475 7.40833C8.89583 8.23083 8.225 8.90166 7.4025 9.05333" stroke="#9CA5B3" stroke-linecap="round" stroke-linejoin="round"/>
<path d="M5.52416 8.47583L1.16666 12.8333" stroke="#9CA5B3" stroke-linecap="round" stroke-linejoin="round"/>
<path d="M12.8333 1.16669L8.47583 5.52419" stroke="#9CA5B3" stroke-linecap="round" stroke-linejoin="round"/>
</svg>
