<svg width="19" height="19" viewBox="0 0 19 19" fill="none" xmlns="http://www.w3.org/2000/svg">
<path d="M6.72909 15.0416H6.33325C3.16659 15.0416 1.58325 14.25 1.58325 10.2916V6.33331C1.58325 3.16665 3.16659 1.58331 6.33325 1.58331H12.6666C15.8333 1.58331 17.4166 3.16665 17.4166 6.33331V10.2916C17.4166 13.4583 15.8333 15.0416 12.6666 15.0416H12.2708C12.0253 15.0416 11.7878 15.1604 11.6374 15.3583L10.4499 16.9416C9.92742 17.6383 9.07242 17.6383 8.54992 16.9416L7.36242 15.3583C7.23575 15.1841 6.94284 15.0416 6.72909 15.0416Z" stroke="#9CA5B3" stroke-width="1.5" stroke-miterlimit="10" stroke-linecap="round" stroke-linejoin="round"/>
<path d="M5.54175 6.33331H13.4584" stroke="#9CA5B3" stroke-width="1.5" stroke-linecap="round" stroke-linejoin="round"/>
<path d="M5.54175 10.2917H10.2917" stroke="#9CA5B3" stroke-width="1.5" stroke-linecap="round" stroke-linejoin="round"/>
</svg>
